<?xml version="1.0" standalone="no"?>
<!DOCTYPE svg PUBLIC "-//W3C//DTD SVG 20010904//EN"
 "http://www.w3.org/TR/2001/REC-SVG-20010904/DTD/svg10.dtd">
<svg version="1.0" xmlns="http://www.w3.org/2000/svg"
 width="512.000000pt" height="512.000000pt" viewBox="0 0 512.000000 512.000000"
 preserveAspectRatio="xMidYMid meet">
<metadata>
Created by potrace 1.14, written by Peter Selinger 2001-2017
</metadata>
<g transform="translate(0.000000,512.000000) scale(0.100000,-0.100000)"
fill="#000000" stroke="none">
<path d="M2485 4906 c-5 -3 -27 -7 -49 -11 -43 -7 -86 -44 -86 -74 0 -11 11
-32 24 -47 l23 -28 86 14 c69 10 97 11 149 1 163 -32 293 -158 327 -319 6 -29
11 -89 11 -132 l0 -80 -411 0 -412 0 5 113 c3 95 8 121 31 171 15 32 27 69 27
82 0 55 -79 85 -119 45 -22 -22 -61 -120 -68 -173 l-6 -38 -203 0 -204 0 0 78
c0 69 -3 81 -23 100 -30 28 -68 28 -95 -1 -19 -20 -22 -35 -22 -100 l0 -77
-200 0 -200 0 0 78 c0 69 -3 81 -23 100 -30 28 -68 28 -95 -1 -19 -20 -22 -35
-22 -100 l0 -77 -267 0 c-248 0 -271 -2 -313 -21 -60 -27 -88 -54 -116 -114
l-24 -50 0 -722 c0 -710 0 -723 20 -743 11 -11 33 -20 50 -20 17 0 39 9 50 20
19 19 20 33 20 405 l0 385 2210 0 2210 0 0 -885 c0 -872 0 -885 20 -905 27
-27 74 -26 100 2 20 22 20 28 20 1242 l0 1221 -24 50 c-28 60 -56 87 -116 114
-42 19 -65 21 -312 21 l-268 0 0 78 c0 69 -3 81 -23 100 -30 28 -68 28 -95 -1
-19 -20 -22 -35 -22 -100 l0 -77 -200 0 -200 0 0 78 c0 69 -3 81 -23 100 -30
28 -68 28 -95 -1 -19 -20 -22 -35 -22 -100 l0 -77 -203 0 -203 0 -12 59 c-35
171 -173 324 -350 388 -62 23 -227 41 -257 29z m-1555 -696 c0 -91 17 -120 70
-120 53 0 70 29 70 120 l0 80 200 0 200 0 0 -80 c0 -91 17 -120 70 -120 53 0
70 29 70 120 l0 80 200 0 200 0 0 -80 c0 -131 -51 -120 550 -120 601 0 550
-11 550 120 l0 80 200 0 200 0 0 -80 c0 -91 17 -120 70 -120 53 0 70 29 70
120 l0 80 200 0 200 0 0 -80 c0 -91 17 -120 70 -120 53 0 70 29 70 120 l0 80
244 0 c155 0 255 -4 276 -11 55 -20 60 -46 60 -324 l0 -245 -2210 0 -2210 0 0
244 c0 155 4 255 11 276 20 55 44 59 322 60 l247 0 0 -80z"/>
<path d="M2372 3075 c-151 -27 -309 -90 -442 -176 -84 -55 -254 -225 -309
-309 -251 -387 -254 -866 -6 -1247 253 -388 724 -583 1180 -488 113 23 276 92
381 160 114 74 255 215 329 329 423 650 81 1518 -673 1713 -124 31 -335 40
-460 18z m430 -159 c362 -92 643 -383 724 -751 27 -124 23 -323 -9 -445 -95
-362 -369 -632 -733 -722 -131 -32 -333 -30 -464 5 -182 47 -325 129 -456 261
-132 131 -214 274 -261 456 -35 131 -37 333 -5 463 88 356 354 633 697 728
165 45 342 47 507 5z"/>
<path d="M2510 2810 c-15 -15 -20 -33 -20 -70 0 -59 24 -90 70 -90 46 0 70 31
70 90 0 59 -24 90 -70 90 -17 0 -39 -9 -50 -20z"/>
<path d="M2510 2490 c-19 -19 -20 -33 -20 -264 l0 -243 -120 -209 c-72 -126
-120 -219 -120 -235 0 -30 40 -69 71 -69 34 0 67 45 188 256 l121 212 0 266
c0 253 -1 267 -20 286 -11 11 -33 20 -50 20 -17 0 -39 -9 -50 -20z"/>
<path d="M1710 2010 c-11 -11 -20 -33 -20 -50 0 -46 31 -70 90 -70 59 0 90 24
90 70 0 46 -31 70 -90 70 -37 0 -55 -5 -70 -20z"/>
<path d="M3270 2010 c-11 -11 -20 -33 -20 -50 0 -46 31 -70 90 -70 59 0 90 24
90 70 0 46 -31 70 -90 70 -37 0 -55 -5 -70 -20z"/>
<path d="M2510 1250 c-15 -15 -20 -33 -20 -70 0 -59 24 -90 70 -90 46 0 70 31
70 90 0 59 -24 90 -70 90 -17 0 -39 -9 -50 -20z"/>
<path d="M230 2510 c-20 -20 -20 -33 -20 -1067 0 -1033 1 -1049 21 -1093 27
-60 54 -88 114 -116 l50 -24 2165 0 2165 0 50 24 c60 28 87 56 114 116 19 42
21 65 21 311 0 265 0 266 -23 287 -30 28 -68 28 -95 -1 -21 -23 -22 -30 -22
-281 l0 -258 -29 -29 -29 -29 -2152 0 -2152 0 -29 29 -29 29 0 1041 c0 1028 0
1041 -20 1061 -11 11 -33 20 -50 20 -17 0 -39 -9 -50 -20z"/>
<path d="M4790 1510 c-18 -18 -20 -33 -20 -144 0 -144 11 -170 71 -168 59 2
69 25 69 168 0 111 -2 126 -20 144 -11 11 -33 20 -50 20 -17 0 -39 -9 -50 -20z"/>
</g>
</svg>
